<svg width="32" height="32" viewBox="0 0 32 32" fill="none" xmlns="http://www.w3.org/2000/svg">
<path d="M32 12H28V8H26V12H22V14H26V18H28V14H32V12Z" fill="white"/>
<path d="M12 2C12.9889 2 13.9556 2.29324 14.7779 2.84265C15.6001 3.39206 16.241 4.17295 16.6194 5.08658C16.9978 6.00021 17.0969 7.00555 16.9039 7.97545C16.711 8.94536 16.2348 9.83627 15.5355 10.5355C14.8363 11.2348 13.9454 11.711 12.9755 11.9039C12.0055 12.0969 11.0002 11.9978 10.0866 11.6194C9.17296 11.241 8.39206 10.6001 7.84266 9.77785C7.29325 8.95561 7 7.98891 7 7C7 5.67392 7.52679 4.40215 8.46447 3.46447C9.40215 2.52678 10.6739 2 12 2ZM12 0C10.6155 0 9.26216 0.410543 8.11101 1.17971C6.95987 1.94888 6.06266 3.04213 5.53285 4.32122C5.00303 5.6003 4.86441 7.00776 5.13451 8.36563C5.4046 9.7235 6.07129 10.9708 7.05026 11.9497C8.02922 12.9287 9.2765 13.5954 10.6344 13.8655C11.9922 14.1356 13.3997 13.997 14.6788 13.4672C15.9579 12.9373 17.0511 12.0401 17.8203 10.889C18.5895 9.73785 19 8.38447 19 7C19 5.14348 18.2625 3.36301 16.9497 2.05025C15.637 0.737498 13.8565 0 12 0Z" fill="white"/>
<path d="M22 28H20V23C20 21.6739 19.4732 20.4021 18.5355 19.4645C17.5979 18.5268 16.3261 18 15 18H9C7.67392 18 6.40215 18.5268 5.46447 19.4645C4.52678 20.4021 4 21.6739 4 23V28H2V23C2 21.1435 2.7375 19.363 4.05025 18.0503C5.36301 16.7375 7.14348 16 9 16H15C16.8565 16 18.637 16.7375 19.9497 18.0503C21.2625 19.363 22 21.1435 22 23V28Z" fill="white"/>
</svg>
