<svg width="22" height="22" viewBox="0 0 22 22" fill="none" xmlns="http://www.w3.org/2000/svg">
<path d="M17.1875 6.875H4.8125C4.26568 6.8756 3.74142 7.09309 3.35476 7.47976C2.96809 7.86642 2.7506 8.39068 2.75 8.9375V13.0625C2.75042 13.427 2.89542 13.7765 3.15319 14.0343C3.41096 14.2921 3.76046 14.4371 4.125 14.4375V19.25C4.12542 19.6145 4.27042 19.964 4.52819 20.2218C4.78596 20.4796 5.13546 20.6246 5.5 20.625H8.25C8.61454 20.6246 8.96404 20.4796 9.22181 20.2218C9.47958 19.964 9.62458 19.6145 9.625 19.25V11H8.25V19.25H5.5V13.0625H4.125V8.9375C4.12516 8.75521 4.19765 8.58044 4.32655 8.45155C4.45544 8.32265 4.63021 8.25016 4.8125 8.25H17.1875C17.3698 8.25016 17.5446 8.32265 17.6735 8.45155C17.8024 8.58044 17.8748 8.75521 17.875 8.9375V13.0625H16.5V19.25H13.75V11H12.375V19.25C12.3754 19.6145 12.5204 19.964 12.7782 20.2218C13.036 20.4796 13.3855 20.6246 13.75 20.625H16.5C16.8645 20.6246 17.214 20.4796 17.4718 20.2218C17.7296 19.964 17.8746 19.6145 17.875 19.25V14.4375C18.2395 14.4371 18.589 14.2921 18.8468 14.0343C19.1046 13.7765 19.2496 13.427 19.25 13.0625V8.9375C19.2494 8.39068 19.0319 7.86642 18.6452 7.47976C18.2586 7.09309 17.7343 6.8756 17.1875 6.875Z" fill="white"/>
<path d="M6.875 6.1875C6.3311 6.1875 5.79942 6.02622 5.34718 5.72404C4.89495 5.42187 4.54247 4.99238 4.33433 4.48988C4.12619 3.98738 4.07173 3.43445 4.17784 2.901C4.28395 2.36756 4.54586 1.87755 4.93046 1.49296C5.31505 1.10836 5.80506 0.846451 6.3385 0.740342C6.87195 0.634232 7.42488 0.688692 7.92738 0.896833C8.42988 1.10497 8.85937 1.45745 9.16154 1.90968C9.46372 2.36192 9.625 2.8936 9.625 3.4375C9.62424 4.16661 9.33426 4.86564 8.8187 5.3812C8.30314 5.89676 7.60411 6.18674 6.875 6.1875ZM6.875 2.0625C6.60305 2.0625 6.33721 2.14314 6.11109 2.29423C5.88497 2.44532 5.70874 2.66006 5.60467 2.91131C5.5006 3.16256 5.47337 3.43903 5.52642 3.70575C5.57948 3.97247 5.71043 4.21748 5.90273 4.40977C6.09503 4.60207 6.34003 4.73303 6.60675 4.78608C6.87348 4.83914 7.14994 4.81191 7.40119 4.70784C7.65244 4.60377 7.86718 4.42753 8.01827 4.20141C8.16936 3.97529 8.25 3.70945 8.25 3.4375C8.24958 3.07296 8.10458 2.72346 7.84681 2.46569C7.58904 2.20792 7.23955 2.06292 6.875 2.0625Z" fill="white"/>
<path d="M15.125 6.1875C14.5811 6.1875 14.0494 6.02622 13.5972 5.72404C13.1449 5.42187 12.7925 4.99238 12.5843 4.48988C12.3762 3.98738 12.3217 3.43445 12.4278 2.901C12.534 2.36756 12.7959 1.87755 13.1805 1.49296C13.5651 1.10836 14.0551 0.846451 14.5885 0.740342C15.122 0.634232 15.6749 0.688692 16.1774 0.896833C16.6799 1.10497 17.1094 1.45745 17.4115 1.90968C17.7137 2.36192 17.875 2.8936 17.875 3.4375C17.8742 4.16661 17.5843 4.86564 17.0687 5.3812C16.5531 5.89676 15.8541 6.18674 15.125 6.1875ZM15.125 2.0625C14.8531 2.0625 14.5872 2.14314 14.3611 2.29423C14.135 2.44532 13.9587 2.66006 13.8547 2.91131C13.7506 3.16256 13.7234 3.43903 13.7764 3.70575C13.8295 3.97247 13.9604 4.21748 14.1527 4.40977C14.345 4.60207 14.59 4.73303 14.8568 4.78608C15.1235 4.83914 15.3999 4.81191 15.6512 4.70784C15.9024 4.60377 16.1172 4.42753 16.2683 4.20141C16.4194 3.97529 16.5 3.70945 16.5 3.4375C16.4996 3.07296 16.3546 2.72346 16.0968 2.46569C15.839 2.20792 15.4895 2.06292 15.125 2.0625Z" fill="white"/>
</svg>
