<svg width="45" height="45" viewBox="0 0 45 45" fill="none" xmlns="http://www.w3.org/2000/svg">
<path d="M22.5 26.7187C20.8757 26.7201 19.2763 26.319 17.8449 25.5512C16.4135 24.7834 15.1947 23.6729 14.2973 22.319L16.6401 20.7617C17.2816 21.7286 18.1524 22.5218 19.1749 23.0704C20.1973 23.6191 21.3396 23.9062 22.5 23.9062C23.6603 23.9062 24.8027 23.6191 25.8251 23.0704C26.8475 22.5218 27.7183 21.7286 28.3598 20.7617L30.7026 22.319C29.8053 23.6729 28.5864 24.7834 27.155 25.5512C25.7236 26.319 24.1243 26.7201 22.5 26.7187Z" fill="white"/>
<path d="M28.125 11.25C27.5687 11.25 27.025 11.415 26.5625 11.724C26.0999 12.033 25.7395 12.4723 25.5266 12.9862C25.3137 13.5001 25.258 14.0656 25.3665 14.6112C25.4751 15.1568 25.7429 15.6579 26.1363 16.0513C26.5296 16.4446 27.0307 16.7125 27.5763 16.821C28.1219 16.9295 28.6874 16.8738 29.2013 16.6609C29.7152 16.4481 30.1545 16.0876 30.4635 15.6251C30.7726 15.1625 30.9375 14.6188 30.9375 14.0625C30.9411 13.6922 30.8709 13.3248 30.7308 12.9819C30.5908 12.639 30.3838 12.3275 30.1219 12.0656C29.86 11.8038 29.5485 11.5967 29.2056 11.4567C28.8627 11.3166 28.4954 11.2464 28.125 11.25Z" fill="white"/>
<path d="M16.875 11.25C16.3187 11.25 15.775 11.415 15.3125 11.724C14.8499 12.033 14.4895 12.4723 14.2766 12.9862C14.0637 13.5001 14.008 14.0656 14.1165 14.6112C14.2251 15.1568 14.4929 15.6579 14.8863 16.0513C15.2796 16.4446 15.7807 16.7125 16.3263 16.821C16.8719 16.9295 17.4374 16.8738 17.9513 16.6609C18.4652 16.4481 18.9045 16.0876 19.2135 15.6251C19.5226 15.1625 19.6875 14.6188 19.6875 14.0625C19.6911 13.6922 19.6209 13.3248 19.4808 12.9819C19.3408 12.639 19.1338 12.3275 18.8719 12.0656C18.61 11.8038 18.2985 11.5967 17.9556 11.4567C17.6127 11.3166 17.2454 11.2464 16.875 11.25Z" fill="white"/>
<path d="M24.941 42.1875L22.5 40.7812L28.125 30.9375H36.5625C36.932 30.9381 37.298 30.8658 37.6395 30.7247C37.9811 30.5836 38.2914 30.3764 38.5526 30.1151C38.8139 29.8539 39.0211 29.5436 39.1622 29.202C39.3033 28.8605 39.3756 28.4945 39.375 28.125V8.4375C39.3756 8.06798 39.3033 7.70197 39.1622 7.36046C39.0211 7.01895 38.8139 6.70865 38.5526 6.44736C38.2914 6.18607 37.9811 5.97892 37.6395 5.83781C37.298 5.69669 36.932 5.62437 36.5625 5.625H8.4375C8.06798 5.62437 7.70197 5.69669 7.36046 5.83781C7.01895 5.97892 6.70865 6.18607 6.44736 6.44736C6.18607 6.70865 5.97892 7.01895 5.83781 7.36046C5.69669 7.70197 5.62437 8.06798 5.625 8.4375V28.125C5.62437 28.4945 5.69669 28.8605 5.83781 29.202C5.97892 29.5436 6.18607 29.8539 6.44736 30.1151C6.70865 30.3764 7.01895 30.5836 7.36046 30.7247C7.70197 30.8658 8.06798 30.9381 8.4375 30.9375H21.0938V33.75H8.4375C7.69878 33.7501 6.96727 33.6047 6.28475 33.3221C5.60224 33.0394 4.98209 32.6251 4.45974 32.1028C3.93738 31.5804 3.52305 30.9603 3.24041 30.2777C2.95778 29.5952 2.81237 28.8637 2.8125 28.125V8.4375C2.81228 7.69875 2.95762 6.9672 3.24023 6.28464C3.52283 5.60209 3.93716 4.9819 4.45953 4.45953C4.9819 3.93716 5.60209 3.52283 6.28464 3.24023C6.9672 2.95762 7.69875 2.81228 8.4375 2.8125H36.5625C37.3012 2.81228 38.0328 2.95762 38.7154 3.24023C39.3979 3.52283 40.0181 3.93716 40.5405 4.45953C41.0628 4.9819 41.4772 5.60209 41.7598 6.28464C42.0424 6.9672 42.1877 7.69875 42.1875 8.4375V28.125C42.1876 28.8637 42.0422 29.5952 41.7596 30.2777C41.4769 30.9603 41.0626 31.5804 40.5403 32.1028C40.0179 32.6251 39.3978 33.0394 38.7152 33.3221C38.0327 33.6047 37.3012 33.7501 36.5625 33.75H29.7627L24.941 42.1875Z" fill="white"/>
</svg>
