<svg width="150" height="150" viewBox="0 0 150 150" fill="none" xmlns="http://www.w3.org/2000/svg">
<rect width="150" height="150" fill="#1E1E1E"/>
<rect width="430" height="932" transform="translate(-140 -361)" fill="#FFB703"/>
<path d="M75 89.0625C69.5856 89.067 64.2545 87.7299 59.4832 85.1707C54.7118 82.6114 50.649 78.9098 47.6578 74.3967L55.4672 69.2058C57.6055 72.4288 60.5081 75.0726 63.9163 76.9015C67.3244 78.7303 71.1322 79.6874 75 79.6874C78.8678 79.6874 82.6756 78.7303 86.0837 76.9015C89.4919 75.0726 92.3945 72.4288 94.5328 69.2058L102.342 74.3967C99.351 78.9098 95.2882 82.6114 90.5168 85.1707C85.7455 87.7299 80.4144 89.067 75 89.0625Z" fill="white"/>
<path d="M93.75 37.5C91.8958 37.5 90.0832 38.0498 88.5415 39.08C86.9998 40.1101 85.7982 41.5743 85.0886 43.2873C84.3791 45.0004 84.1934 46.8854 84.5551 48.704C84.9169 50.5225 85.8098 52.193 87.1209 53.5041C88.432 54.8152 90.1025 55.7081 91.921 56.0699C93.7396 56.4316 95.6246 56.2459 97.3377 55.5364C99.0507 54.8268 100.515 53.6252 101.545 52.0835C102.575 50.5418 103.125 48.7292 103.125 46.875C103.137 45.6405 102.903 44.4159 102.436 43.273C101.969 42.1301 101.279 41.0918 100.406 40.2188C99.5332 39.3458 98.4949 38.6557 97.352 38.1889C96.2091 37.722 94.9845 37.4878 93.75 37.5Z" fill="white"/>
<path d="M56.25 37.5C54.3958 37.5 52.5832 38.0498 51.0415 39.08C49.4998 40.1101 48.2982 41.5743 47.5886 43.2873C46.8791 45.0004 46.6934 46.8854 47.0551 48.704C47.4169 50.5225 48.3098 52.193 49.6209 53.5041C50.932 54.8152 52.6025 55.7081 54.421 56.0699C56.2396 56.4316 58.1246 56.2459 59.8377 55.5364C61.5507 54.8268 63.0149 53.6252 64.045 52.0835C65.0752 50.5418 65.625 48.7292 65.625 46.875C65.6372 45.6405 65.403 44.4159 64.9361 43.273C64.4693 42.1301 63.7792 41.0918 62.9062 40.2188C62.0332 39.3458 60.9949 38.6557 59.852 38.1889C58.7091 37.722 57.4845 37.4878 56.25 37.5Z" fill="white"/>
<path d="M83.1366 140.625L75 135.938L93.75 103.125H121.875C123.107 103.127 124.327 102.886 125.465 102.416C126.604 101.945 127.638 101.255 128.509 100.384C129.38 99.5128 130.07 98.4785 130.541 97.3401C131.011 96.2018 131.252 94.9817 131.25 93.75V28.125C131.252 26.8933 131.011 25.6732 130.541 24.5349C130.07 23.3965 129.38 22.3622 128.509 21.4912C127.638 20.6202 126.604 19.9297 125.465 19.4594C124.327 18.989 123.107 18.7479 121.875 18.75H28.125C26.8933 18.7479 25.6732 18.989 24.5349 19.4594C23.3965 19.9297 22.3622 20.6202 21.4912 21.4912C20.6202 22.3622 19.9297 23.3965 19.4594 24.5349C18.989 25.6732 18.7479 26.8933 18.75 28.125V93.75C18.7479 94.9817 18.989 96.2018 19.4594 97.3401C19.9297 98.4785 20.6202 99.5128 21.4912 100.384C22.3622 101.255 23.3965 101.945 24.5349 102.416C25.6732 102.886 26.8933 103.127 28.125 103.125H70.3125V112.5H28.125C25.6626 112.5 23.2242 112.016 20.9492 111.074C18.6741 110.131 16.607 108.75 14.8658 107.009C13.1246 105.268 11.7435 103.201 10.8014 100.926C9.85926 98.6508 9.37457 96.2124 9.375 93.75V28.125C9.37426 25.6625 9.85874 23.224 10.8008 20.9488C11.7428 18.6736 13.1239 16.6063 14.8651 14.8651C16.6063 13.1239 18.6736 11.7428 20.9488 10.8008C23.224 9.85874 25.6625 9.37426 28.125 9.375H121.875C124.337 9.37426 126.776 9.85874 129.051 10.8008C131.326 11.7428 133.394 13.1239 135.135 14.8651C136.876 16.6063 138.257 18.6736 139.199 20.9488C140.141 23.224 140.626 25.6625 140.625 28.125V93.75C140.625 96.2124 140.141 98.6508 139.199 100.926C138.257 103.201 136.875 105.268 135.134 107.009C133.393 108.75 131.326 110.131 129.051 111.074C126.776 112.016 124.337 112.5 121.875 112.5H99.2091L83.1366 140.625Z" fill="white"/>
</svg>
