<svg width="25" height="25" viewBox="0 0 25 25" fill="none" xmlns="http://www.w3.org/2000/svg">
<path d="M12.5 14.8438C11.5976 14.8445 10.7091 14.6217 9.91389 14.1951C9.11867 13.7686 8.44152 13.1516 7.94299 12.3995L9.24456 11.5343C9.60094 12.0715 10.0847 12.5121 10.6527 12.8169C11.2208 13.1217 11.8554 13.2812 12.5 13.2812C13.1447 13.2812 13.7793 13.1217 14.3473 12.8169C14.9153 12.5121 15.3991 12.0715 15.7555 11.5343L17.0571 12.3995C16.5585 13.1516 15.8814 13.7686 15.0862 14.1951C14.2909 14.6217 13.4024 14.8445 12.5 14.8438Z" fill="#FDB703"/>
<path d="M15.625 6.25001C15.316 6.25001 15.0139 6.34165 14.7569 6.51334C14.5 6.68503 14.2997 6.92906 14.1814 7.21457C14.0632 7.50008 14.0322 7.81425 14.0925 8.11734C14.1528 8.42044 14.3016 8.69885 14.5201 8.91737C14.7387 9.13589 15.0171 9.2847 15.3202 9.34499C15.6233 9.40528 15.9374 9.37434 16.2229 9.25608C16.5085 9.13781 16.7525 8.93754 16.9242 8.68059C17.0959 8.42364 17.1875 8.12155 17.1875 7.81251C17.1895 7.60676 17.1505 7.40267 17.0727 7.21218C16.9949 7.0217 16.8799 6.84864 16.7344 6.70315C16.5889 6.55765 16.4158 6.44263 16.2253 6.36483C16.0348 6.28702 15.8308 6.24799 15.625 6.25001Z" fill="#FDB703"/>
<path d="M9.375 6.25001C9.06597 6.25001 8.76387 6.34165 8.50692 6.51334C8.24997 6.68503 8.0497 6.92906 7.93144 7.21457C7.81318 7.50008 7.78223 7.81425 7.84252 8.11734C7.90281 8.42044 8.05163 8.69885 8.27015 8.91737C8.48867 9.13589 8.76708 9.2847 9.07017 9.34499C9.37327 9.40528 9.68743 9.37434 9.97294 9.25608C10.2585 9.13781 10.5025 8.93754 10.6742 8.68059C10.8459 8.42364 10.9375 8.12155 10.9375 7.81251C10.9395 7.60676 10.9005 7.40267 10.8227 7.21218C10.7449 7.0217 10.6299 6.84864 10.4844 6.70315C10.3389 6.55765 10.1658 6.44263 9.97533 6.36483C9.78485 6.28702 9.58075 6.24799 9.375 6.25001Z" fill="#FDB703"/>
<path d="M13.8561 23.4375L12.5 22.6563L15.625 17.1875H20.3125C20.5178 17.1879 20.7211 17.1477 20.9109 17.0693C21.1006 16.9909 21.273 16.8758 21.4181 16.7306C21.5633 16.5855 21.6784 16.4131 21.7568 16.2234C21.8352 16.0336 21.8754 15.8303 21.875 15.625V4.6875C21.8754 4.48221 21.8352 4.27887 21.7568 4.08914C21.6784 3.89941 21.5633 3.72703 21.4181 3.58187C21.273 3.4367 21.1006 3.32162 20.9109 3.24323C20.7211 3.16483 20.5178 3.12465 20.3125 3.125H4.6875C4.48221 3.12465 4.27887 3.16483 4.08914 3.24323C3.89941 3.32162 3.72703 3.4367 3.58187 3.58187C3.4367 3.72703 3.32162 3.89941 3.24323 4.08914C3.16483 4.27887 3.12465 4.48221 3.125 4.6875V15.625C3.12465 15.8303 3.16483 16.0336 3.24323 16.2234C3.32162 16.4131 3.4367 16.5855 3.58187 16.7306C3.72703 16.8758 3.89941 16.9909 4.08914 17.0693C4.27887 17.1477 4.48221 17.1879 4.6875 17.1875H11.7188V18.75H4.6875C4.2771 18.7501 3.8707 18.6693 3.49153 18.5123C3.11235 18.3553 2.76783 18.1251 2.47763 17.8349C2.18743 17.5447 1.95725 17.2001 1.80023 16.821C1.64321 16.4418 1.56243 16.0354 1.5625 15.625V4.6875C1.56238 4.27708 1.64312 3.87067 1.80013 3.49147C1.95713 3.11227 2.18731 2.76772 2.47752 2.47752C2.76772 2.18731 3.11227 1.95713 3.49147 1.80013C3.87067 1.64312 4.27708 1.56238 4.6875 1.5625H20.3125C20.7229 1.56238 21.1293 1.64312 21.5085 1.80013C21.8877 1.95713 22.2323 2.18731 22.5225 2.47752C22.8127 2.76772 23.0429 3.11227 23.1999 3.49147C23.3569 3.87067 23.4376 4.27708 23.4375 4.6875V15.625C23.4376 16.0354 23.3568 16.4418 23.1998 16.821C23.0427 17.2001 22.8126 17.5447 22.5224 17.8349C22.2322 18.1251 21.8876 18.3553 21.5085 18.5123C21.1293 18.6693 20.7229 18.7501 20.3125 18.75H16.5348L13.8561 23.4375Z" fill="#FDB703"/>
</svg>
