<svg width="20" height="20" viewBox="0 0 20 20" fill="none" xmlns="http://www.w3.org/2000/svg">
<g clip-path="url(#clip0_306_431)">
<path d="M3.275 14.0688L4.16875 13.1813C3.19014 12.3026 2.42123 11.2154 1.91875 10C3.1875 6.83125 6.6875 4.375 10 4.375C10.8524 4.38625 11.6971 4.5383 12.5 4.825L13.4687 3.85C12.3704 3.38583 11.1923 3.13959 10 3.125C7.96282 3.20161 5.99274 3.87347 4.33325 5.05755C2.67376 6.24164 1.3976 7.88603 0.6625 9.7875C0.612855 9.92482 0.612855 10.0752 0.6625 10.2125C1.21765 11.6856 2.11277 13.0069 3.275 14.0688Z" fill="black"/>
<path d="M7.5 9.83123C7.54346 9.2323 7.80106 8.66903 8.22568 8.24441C8.6503 7.81979 9.21357 7.5622 9.8125 7.51873L10.9438 6.38123C10.3099 6.21432 9.64327 6.21649 9.01047 6.38752C8.37767 6.55855 7.80076 6.89247 7.33725 7.35598C6.87373 7.81949 6.53982 8.39641 6.36879 9.02921C6.19776 9.66201 6.19559 10.3286 6.3625 10.9625L7.5 9.83123Z" fill="black"/>
<path d="M19.3375 9.7875C18.6208 7.92075 17.3738 6.30439 15.75 5.1375L18.75 2.13125L17.8688 1.25L1.25 17.8688L2.13125 18.75L5.31875 15.5625C6.73992 16.3963 8.35253 16.8484 10 16.875C12.0372 16.7984 14.0073 16.1265 15.6667 14.9424C17.3262 13.7584 18.6024 12.114 19.3375 10.2125C19.3871 10.0752 19.3871 9.92482 19.3375 9.7875ZM12.5 10C12.4974 10.4376 12.3799 10.8668 12.1594 11.2447C11.9389 11.6227 11.6231 11.9361 11.2435 12.1538C10.8639 12.3714 10.4338 12.4856 9.99625 12.485C9.55868 12.4843 9.12894 12.3688 8.75 12.15L12.15 8.75C12.3747 9.12858 12.4954 9.55978 12.5 10ZM10 15.625C8.68879 15.6021 7.40243 15.2634 6.25 14.6375L7.8375 13.05C8.55959 13.551 9.43471 13.7825 10.3101 13.704C11.1855 13.6256 12.0055 13.2421 12.6269 12.6207C13.2484 11.9992 13.6318 11.1792 13.7103 10.3038C13.7888 9.42846 13.5573 8.55333 13.0562 7.83125L14.85 6.0375C16.2841 7.02186 17.4056 8.39714 18.0813 10C16.8125 13.1688 13.3125 15.625 10 15.625Z" fill="black"/>
</g>
<defs>
<clipPath id="clip0_306_431">
<rect width="20" height="20" fill="white"/>
</clipPath>
</defs>
</svg>
