<svg width="20" height="20" viewBox="0 0 20 20" fill="none" xmlns="http://www.w3.org/2000/svg">
<g clip-path="url(#clip0_315_451)">
<path d="M3.75 3.75H16.3574L14.1162 1.50881L15 0.625L18.75 4.375L15 8.125L14.1162 7.24119L16.3574 5H3.75V9.375H2.5V5C2.5004 4.6686 2.63222 4.35089 2.86655 4.11655C3.10089 3.88222 3.4186 3.7504 3.75 3.75Z" fill="black"/>
<path d="M5.88381 12.7588L3.64256 15H16.25V10.625H17.5V15C17.4996 15.3314 17.3678 15.6491 17.1334 15.8834C16.8991 16.1178 16.5814 16.2496 16.25 16.25H3.64256L5.88375 18.4912L5 19.375L1.25 15.625L5 11.875L5.88381 12.7588Z" fill="black"/>
</g>
<defs>
<clipPath id="clip0_315_451">
<rect width="20" height="20" fill="white"/>
</clipPath>
</defs>
</svg>
