<svg width="20" height="20" viewBox="0 0 20 20" fill="none" xmlns="http://www.w3.org/2000/svg">
<g clip-path="url(#clip0_224_546)">
<path d="M18.125 17.2412L13.4049 12.5211C14.5391 11.1595 15.1047 9.41297 14.984 7.64494C14.8633 5.87692 14.0656 4.22348 12.7569 3.0286C11.4482 1.83372 9.72919 1.18939 7.9575 1.22965C6.18581 1.26991 4.49785 1.99166 3.24476 3.24476C1.99166 4.49785 1.26991 6.18581 1.22965 7.9575C1.18939 9.72919 1.83372 11.4482 3.0286 12.7569C4.22348 14.0656 5.87692 14.8633 7.64494 14.984C9.41297 15.1047 11.1595 14.5391 12.5211 13.4049L17.2412 18.125L18.125 17.2412ZM2.5 8.125C2.5 7.01248 2.8299 5.92494 3.44798 4.99991C4.06606 4.07489 4.94457 3.35392 5.9724 2.92817C7.00024 2.50243 8.13124 2.39104 9.22238 2.60808C10.3135 2.82512 11.3158 3.36085 12.1025 4.14752C12.8891 4.93419 13.4249 5.93647 13.6419 7.02761C13.859 8.11876 13.7476 9.24976 13.3218 10.2776C12.8961 11.3054 12.1751 12.1839 11.2501 12.802C10.3251 13.4201 9.23752 13.75 8.125 13.75C6.63366 13.7483 5.20388 13.1552 4.14935 12.1006C3.09481 11.0461 2.50165 9.61633 2.5 8.125Z" fill="black"/>
</g>
<defs>
<clipPath id="clip0_224_546">
<rect width="20" height="20" fill="white"/>
</clipPath>
</defs>
</svg>
