<svg width="25" height="25" viewBox="0 0 25 25" fill="none" xmlns="http://www.w3.org/2000/svg">
<g clip-path="url(#clip0_367_440)">
<rect width="25" height="25" rx="12.5" fill="#FDB703"/>
<path d="M21.6377 11.9049L6.98852 4.57042C6.87371 4.51292 6.74474 4.48988 6.61715 4.50408C6.48956 4.51827 6.36879 4.5691 6.26938 4.65043C6.17444 4.73011 6.10358 4.83472 6.06476 4.95251C6.02595 5.0703 6.02071 5.1966 6.04964 5.3172L8.02063 12.4983L6.02301 19.6595C5.99586 19.7602 5.99269 19.8659 6.01375 19.9681C6.03482 20.0702 6.07954 20.166 6.1443 20.2477C6.20907 20.3294 6.29208 20.3948 6.38666 20.4386C6.48125 20.4823 6.58476 20.5032 6.68888 20.4996C6.79312 20.499 6.89575 20.4739 6.98852 20.4263L21.6377 13.0918C21.7468 13.0358 21.8383 12.9508 21.9023 12.8461C21.9662 12.7414 22 12.6211 22 12.4983C22 12.3756 21.9662 12.2553 21.9023 12.1506C21.8383 12.0459 21.7468 11.9609 21.6377 11.9049ZM7.72098 18.5726L9.19257 13.1651H15.3452V11.8316H9.19257L7.72098 6.42404L19.8465 12.4983L7.72098 18.5726Z" fill="#F9F9F9"/>
</g>
<defs>
<clipPath id="clip0_367_440">
<rect width="25" height="25" rx="12.5" fill="white"/>
</clipPath>
</defs>
</svg>
